<?xml version="1.0" encoding="UTF-8" standalone="no"?>
<!-- Created with Inkscape (http://www.inkscape.org/) -->

<svg
   xmlns:dc="http://purl.org/dc/elements/1.1/"
   xmlns:cc="http://creativecommons.org/ns#"
   xmlns:rdf="http://www.w3.org/1999/02/22-rdf-syntax-ns#"
   xmlns:svg="http://www.w3.org/2000/svg"
   xmlns="http://www.w3.org/2000/svg"
   xmlns:sodipodi="http://sodipodi.sourceforge.net/DTD/sodipodi-0.dtd"
   xmlns:inkscape="http://www.inkscape.org/namespaces/inkscape"
   viewBox="0 0 336.60001 224.10001"
   id="daniel-darabos"
   version="1.1"
   inkscape:version="0.48.5 r10040"
   sodipodi:docname="card initials 5 - flattened.svg"
   inkscape:export-filename="/Users/darabos/Documents/card initials 5.png"
   inkscape:export-xdpi="600"
   inkscape:export-ydpi="600">
  <defs
     id="defs4">
    <inkscape:path-effect
       effect="spiro"
       id="path-effect3906"
       is_visible="true" />
    <inkscape:path-effect
       is_visible="true"
       id="path-effect3862"
       effect="spiro" />
    <inkscape:path-effect
       effect="spiro"
       id="path-effect3829"
       is_visible="true" />
    <inkscape:path-effect
       effect="spiro"
       id="path-effect3824"
       is_visible="true" />
    <inkscape:path-effect
       effect="spiro"
       id="path-effect3777"
       is_visible="true" />
    <linearGradient
       id="linearGradient3755">
      <stop
         style="stop-color:#f1e5c9;stop-opacity:1;"
         offset="0"
         id="stop3757" />
      <stop
         style="stop-color:#69521c;stop-opacity:1;"
         offset="1"
         id="stop3759" />
    </linearGradient>
  </defs>
  <sodipodi:namedview
     id="base"
     pagecolor="#ffffff"
     bordercolor="#666666"
     borderopacity="1.0"
     inkscape:pageopacity="0.0"
     inkscape:pageshadow="2"
     inkscape:zoom="5.33"
     inkscape:cx="140.44541"
     inkscape:cy="115.28458"
     inkscape:document-units="px"
     inkscape:current-layer="layer1"
     showgrid="false"
     units="px"
     inkscape:snap-global="true"
     inkscape:window-width="1325"
     inkscape:window-height="714"
     inkscape:window-x="4"
     inkscape:window-y="0"
     inkscape:window-maximized="0">
    <inkscape:grid
       type="xygrid"
       id="grid3763"
       empspacing="5"
       visible="true"
       enabled="true"
       snapvisiblegridlinesonly="true" />
  </sodipodi:namedview>
  <metadata
     id="metadata7">
    <rdf:RDF>
      <cc:Work
         rdf:about="">
        <dc:format>image/svg+xml</dc:format>
        <dc:type
           rdf:resource="http://purl.org/dc/dcmitype/StillImage" />
        <dc:title></dc:title>
      </cc:Work>
    </rdf:RDF>
  </metadata>
  <g
     inkscape:label="Layer 1"
     inkscape:groupmode="layer"
     id="layer1"
     transform="translate(0,-828.26)">
    <g
       id="twirl"
       style="fill:#7b2c2c;fill-opacity:1"
       transform="translate(10.800001,-2.7999792)">
      <path
         style="fill:#7b2c2c;stroke:none"
         clip-path="none"
         d="M 181.5625 56.53125 C 180.90615 56.506883 180.23311 56.571172 179.59375 56.71875 C 177.8888 57.11229 176.35009 58.09853 175.1875 59.40625 C 174.02491 60.71396 173.23787 62.35768 172.84375 64.0625 C 172.44964 65.76732 172.41799 67.5211 172.6875 69.25 C 173.15914 72.275505 174.48509 75.108441 176.0625 77.75 L 176.59375 77.375 C 175.36293 75.345831 174.34918 73.188804 173.875 70.875 C 173.54661 69.27261 173.48378 67.60842 173.78125 66 C 174.07872 64.39158 174.74257 62.85733 175.78125 61.59375 C 176.81993 60.33016 178.23074 59.3541 179.8125 58.9375 C 181.39425 58.52091 183.11762 58.67081 184.5625 59.4375 C 185.56651 59.97025 186.43202 60.79674 187 61.78125 C 187.56799 62.76576 187.85386 63.92665 187.8125 65.0625 C 188.23392 63.6356 188.15634 62.06486 187.59375 60.6875 C 187.03117 59.31013 185.98739 58.13008 184.6875 57.40625 C 183.73203 56.874206 182.65641 56.571862 181.5625 56.53125 z M 152.4375 70.78125 C 149.39849 70.769166 146.36499 71.484072 143.71875 72.96875 C 140.19043 74.94833 137.41482 78.30384 136.28125 82.1875 C 135.42684 85.11473 135.52481 88.33723 136.6875 91.15625 C 137.8502 93.97526 140.09573 96.34817 142.90625 97.53125 C 145.71677 98.71434 149.0576 98.65043 151.75 97.21875 C 153.0962 96.50291 154.26567 95.44696 155.125 94.1875 C 155.98433 92.92805 156.52084 91.45616 156.65625 89.9375 C 156.87516 87.48238 156.00465 84.9485 154.3125 83.15625 C 152.62034 81.36401 150.15114 80.32863 147.6875 80.40625 C 148.70886 80.64878 149.66286 81.16653 150.4375 81.875 C 151.21215 82.58347 151.79246 83.5043 152.125 84.5 C 152.45753 85.4957 152.5372 86.56196 152.34375 87.59375 C 152.1503 88.62553 151.67064 89.59863 151 90.40625 C 149.93176 91.69268 148.34912 92.53158 146.6875 92.71875 C 145.02587 92.90592 143.31634 92.46121 141.90625 91.5625 C 140.49617 90.66378 139.38497 89.31493 138.71875 87.78125 C 138.05254 86.24756 137.83682 84.53915 138 82.875 C 138.19853 80.85043 138.95837 78.89419 140.15625 77.25 C 141.35414 75.60581 142.97289 74.27549 144.78125 73.34375 C 148.39796 71.48029 152.71984 71.284 156.65625 72.3125 C 162.05628 73.72341 166.63277 77.26305 170.75 81.03125 C 171.30795 81.5419 171.85467 82.073633 172.40625 82.59375 C 172.41695 82.603841 172.42679 82.614919 172.4375 82.625 L 173.125 83.25 L 173.15625 83.25 C 173.16143 83.254896 173.15107 83.276354 173.15625 83.28125 C 176.37635 86.326489 179.60554 89.363182 183.34375 91.71875 L 182.5 89.59375 C 179.48775 87.450883 176.78733 84.895679 174.0625 82.375 L 174.03125 82.34375 L 173.34375 81.65625 C 173.3285 81.672275 173.29645 81.67144 173.28125 81.6875 C 172.35065 80.830758 171.42247 79.983635 170.46875 79.15625 C 166.11753 75.38142 161.15162 71.97333 155.46875 71.03125 C 154.47094 70.865837 153.4505 70.785278 152.4375 70.78125 z M 193.53125 73 C 189.66635 72.989748 185.79323 73.786443 182.25 75.34375 C 180.47264 76.124936 178.7923 77.113044 177.21875 78.25 C 177.20018 78.263421 177.17479 78.267785 177.15625 78.28125 L 176.625 78.625 L 176.59375 78.625 C 176.60606 78.644642 176.61267 78.667881 176.625 78.6875 C 175.74545 79.358872 174.92221 80.102655 174.125 80.875 L 174.78125 81.625 C 175.55852 80.904907 176.3578 80.212345 177.21875 79.59375 C 177.24717 79.637324 177.28398 79.675227 177.3125 79.71875 L 177.3125 79.59375 L 177.78125 79.25 C 177.77317 79.238034 177.75816 79.23065 177.75 79.21875 C 179.1798 78.242852 180.72066 77.398742 182.3125 76.71875 C 185.72807 75.259715 189.44188 74.546839 193.15625 74.5625 C 194.39437 74.56772 195.61774 74.640208 196.84375 74.8125 C 198.73375 75.07811 200.61633 75.56246 202.3125 76.4375 C 204.00866 77.31253 205.52858 78.603 206.4375 80.28125 C 207.11822 81.53815 207.43873 82.97723 207.40625 84.40625 C 207.37375 85.83528 206.98293 87.23758 206.3125 88.5 C 204.97164 91.02483 202.53277 92.90218 199.8125 93.78125 C 197.09222 94.66032 194.11857 94.59404 191.34375 93.90625 C 189.79023 93.521187 188.30704 92.926655 186.875 92.21875 L 187.5625 93.9375 C 189.05152 94.553555 190.60089 95.040596 192.1875 95.3125 C 195.28166 95.84276 198.55219 95.61192 201.4375 94.375 C 204.32281 93.13808 206.80024 90.85659 208.03125 87.96875 C 208.64675 86.52483 208.95193 84.94275 208.875 83.375 C 208.7981 81.80726 208.3178 80.24601 207.5 78.90625 C 206.46004 77.20254 204.87274 75.87392 203.09375 74.96875 C 201.31475 74.06358 199.35056 73.5664 197.375 73.28125 C 196.09811 73.096945 194.81955 73.003417 193.53125 73 z M 178.28125 80 L 177.75 80.375 C 179.36116 82.787552 181.06684 85.151351 182.46875 87.6875 C 182.97165 88.597286 183.39444 89.520741 183.8125 90.46875 C 183.78132 90.44846 183.75198 90.423957 183.71875 90.40625 L 184.65625 92.5 L 184.71875 92.59375 L 184.6875 92.625 C 185.41291 94.611788 185.96159 96.665569 186.34375 98.75 L 187.90625 98.8125 C 187.56491 96.999302 187.08864 95.204934 186.46875 93.46875 C 186.48996 93.47869 186.51002 93.490115 186.53125 93.5 L 185.78125 91.6875 C 185.7689 91.680685 185.76234 91.663085 185.75 91.65625 C 185.17042 90.293364 184.51348 88.958163 183.75 87.6875 C 182.13036 84.991914 180.1047 82.56301 178.28125 80 z M 171.6875 83.53125 C 171.2743 84.046078 170.87285 84.574944 170.5 85.125 C 167.60453 89.39663 165.94204 94.49827 165.78125 99.65625 C 165.75951 100.35349 165.74869 101.05331 165.78125 101.75 C 165.75979 101.75891 165.74019 101.77229 165.71875 101.78125 L 165.875 102.28125 L 165.84375 102.3125 C 166.13279 106.57417 167.40856 110.76637 169.59375 114.4375 C 170.31918 115.65622 171.14216 116.82671 172.21875 117.75 C 173.29535 118.67329 174.64579 119.33942 176.0625 119.40625 C 176.77206 119.43975 177.47984 119.31181 178.1875 119.25 C 179.02661 119.1767 179.87966 119.17653 180.71875 119.25 L 180.4375 110.46875 L 178.6875 110.15625 C 178.7721 111.11834 178.77345 112.09825 178.71875 113.0625 C 178.65565 114.17431 178.49077 115.26267 178.4375 116.375 C 178.4226 116.68654 178.4355 117.00653 178.375 117.3125 C 178.3145 117.61847 178.17917 117.92604 177.96875 118.15625 C 177.73808 118.40862 177.43056 118.56621 177.09375 118.625 C 176.75694 118.6838 176.39959 118.65085 176.0625 118.59375 C 174.81277 118.38186 173.64555 117.73622 172.6875 116.90625 C 171.72945 116.07627 170.96677 115.0662 170.28125 114 C 167.98897 110.43479 166.66204 106.26187 166.40625 102.03125 C 166.41527 102.02775 166.42848 102.03474 166.4375 102.03125 L 166.4375 101.46875 C 166.41609 101.477 166.39639 101.49169 166.375 101.5 C 166.35421 100.96534 166.361 100.44116 166.375 99.90625 C 166.50462 94.95574 168.11813 90.04005 170.9375 85.96875 C 171.37365 85.338929 171.85441 84.73718 172.34375 84.15625 L 171.6875 83.53125 z M 179.96875 99.53125 C 179.45881 99.60305 178.95224 99.64071 178.4375 99.65625 C 177.76455 99.67655 177.0795 99.6281 176.40625 99.625 C 173.2444 99.608676 170.10197 100.15867 167.125 101.21875 L 167.25 101.71875 C 170.12013 100.72149 173.14827 100.26013 176.1875 100.40625 C 176.50199 100.42135 176.81887 100.42645 177.125 100.5 C 177.43114 100.5736 177.73219 100.69848 177.96875 100.90625 C 178.16431 101.07801 178.30462 101.32289 178.40625 101.5625 C 178.50788 101.80212 178.56739 102.05356 178.59375 102.3125 C 178.64645 102.83038 178.5885 103.35509 178.5625 103.875 C 178.5314 104.49606 178.5475 105.10182 178.625 105.71875 L 179.96875 99.53125 z M 186.71875 101.125 C 186.86466 102.33488 186.93294 103.56084 186.96875 104.78125 L 188.5 106.40625 C 188.52687 105.40594 188.52248 104.4056 188.46875 103.40625 C 188.43784 102.83133 188.37187 102.26028 188.3125 101.6875 L 186.71875 101.125 z M 161.625 103.90625 C 160.16953 104.82402 158.81189 105.8825 157.5625 107.0625 L 158.03125 107.4375 C 159.13715 106.32772 160.34989 105.33472 161.65625 104.46875 L 161.625 103.90625 z M 186.8125 110.03125 C 186.54574 112.74436 186.00963 115.42762 185.21875 118.03125 L 186.46875 117.96875 C 187.30554 115.40268 187.8919 112.77233 188.21875 110.09375 L 186.8125 110.03125 z M 153.25 112.375 C 152.75339 113.19575 152.3104 114.03601 151.90625 114.90625 L 152.65625 115.96875 C 153.11058 114.73005 153.66342 113.52279 154.3125 112.375 L 153.25 112.375 z M 150.3125 119.3125 C 149.4481 122.57655 149.21436 125.99716 149.6875 129.34375 C 150.745 136.82355 155.40026 143.73077 162 147.40625 C 165.29968 149.24388 169.03916 150.25813 172.8125 150.375 L 172.875 150.28125 L 174.1875 150.28125 L 174.25 150.375 C 177.55097 150.28506 180.81508 149.52009 183.78125 148.0625 C 187.28335 146.34155 190.28663 143.75843 193.46875 141.5 C 196.65086 139.24157 200.20407 137.24852 204.09375 136.9375 C 206.71879 136.7276 209.4232 137.32133 211.59375 138.8125 C 213.7643 140.30367 215.34093 142.69803 215.65625 145.3125 C 215.81391 146.61974 215.65976 147.95849 215.1875 149.1875 C 214.715 150.4165 213.93428 151.55228 212.90625 152.375 C 211.87823 153.19773 210.5908 153.70665 209.28125 153.84375 C 207.9717 153.98085 206.61914 153.73431 205.46875 153.09375 C 203.86489 152.2007 202.70338 150.55612 202.375 148.75 C 202.04661 146.94388 202.56314 144.9942 203.75 143.59375 C 202.27472 145.04461 201.42584 147.11879 201.46875 149.1875 C 201.51165 151.25622 202.46584 153.29906 204 154.6875 C 205.24892 155.8178 206.85412 156.53054 208.53125 156.6875 C 210.20837 156.84445 211.93401 156.44347 213.40625 155.625 C 214.87849 154.80654 216.09236 153.56853 216.90625 152.09375 C 217.72013 150.61897 218.14739 148.9343 218.125 147.25 C 218.0802 143.88139 216.28164 140.62469 213.59375 138.59375 C 210.90585 136.5628 207.38429 135.70464 204.03125 136.03125 C 200.09369 136.4148 196.49486 138.30245 193.125 140.375 C 189.75514 142.44756 186.48143 144.78744 182.78125 146.1875 C 180.12539 147.19241 177.27541 147.64633 174.4375 147.625 C 174.43866 147.61479 174.43633 147.60396 174.4375 147.59375 L 174.375 147.625 L 173.1875 147.59375 C 169.46113 147.3721 165.80019 146.28929 162.59375 144.375 C 156.59215 140.79195 152.35522 134.3895 151.375 127.46875 C 151.03575 125.07349 151.09147 122.63226 151.5 120.25 L 150.3125 119.3125 z M 184.40625 120.46875 C 181.48552 128.39711 176.55147 135.52043 174.125 143.625 C 173.80672 144.68808 173.55941 145.78027 173.34375 146.875 L 174.53125 147 C 174.84103 144.74689 175.41954 142.51717 176.1875 140.375 C 178.66148 133.47397 182.84344 127.31387 185.53125 120.5 L 184.40625 120.46875 z M 172.78125 151.4375 C 172.70445 153.27604 172.80844 155.09931 173.1875 156.90625 C 174.10777 161.29304 176.63438 165.45996 180.46875 167.78125 C 182.45487 168.9836 184.77237 169.6643 187.09375 169.625 C 189.41514 169.586 191.73316 168.81251 193.53125 167.34375 C 195.32933 165.87498 196.58624 163.71365 196.84375 161.40625 C 197.10125 159.09886 196.33547 156.66631 194.71875 155 C 193.05057 153.28066 190.5197 152.45251 188.15625 152.84375 C 186.35939 153.1412 184.70686 154.14832 183.5625 155.5625 C 184.02101 155.04124 184.57786 154.60406 185.1875 154.28125 C 186.3055 153.68927 187.62784 153.50672 188.875 153.71875 C 190.12216 153.93077 191.29668 154.54057 192.15625 155.46875 C 193.01582 156.39692 193.54043 157.61526 193.65625 158.875 C 193.81464 160.5977 193.16339 162.37589 192 163.65625 C 190.8366 164.9366 189.18231 165.73102 187.46875 165.96875 C 185.7552 166.20648 183.98331 165.89865 182.40625 165.1875 C 180.82919 164.47639 179.45271 163.36354 178.3125 162.0625 C 175.79973 159.19529 174.52698 155.40019 174.3125 151.59375 C 174.31017 151.55247 174.31511 151.51019 174.3125 151.46875 L 172.78125 151.4375 z "
         transform="translate(-10.800001,831.05998)"
         id="path3860" />
      <path
         transform="matrix(0.70710678,0.70710678,-0.70710678,0.70710678,0,0)"
         style="fill:#7b2c2c;fill-rule:evenodd;stroke:none"
         d="m 787.21747,538.02478 5.38181,0 0,5.38181 -5.38181,0 z"
         id="rect3837" />
      <path
         style="fill:#7b2c2c;stroke:none"
         clip-path="none"
         d="M 99.125 75.625 C 98.463938 75.625039 97.813634 75.676755 97.15625 75.75 C 94.526713 76.042981 91.953664 76.941952 89.75 78.40625 C 88.80514 79.034093 87.940058 79.774079 87.15625 80.59375 L 88.8125 81.375 C 89.887011 80.302449 91.095529 79.366471 92.4375 78.65625 C 96.25724 76.634703 100.87723 76.245351 105.03125 77.4375 C 107.05059 78.017025 108.97181 78.967252 110.53125 80.375 C 112.09069 81.782747 113.27129 83.679134 113.625 85.75 C 113.97871 87.820865 113.46411 90.063856 112.09375 91.65625 C 111.40857 92.452447 110.52132 93.086556 109.53125 93.4375 C 108.54118 93.788444 107.42853 93.835294 106.40625 93.59375 C 105.4177 93.360175 104.51178 92.8305 103.8125 92.09375 C 103.11322 91.357001 102.65046 90.436889 102.46875 89.4375 C 102.28704 88.438112 102.38606 87.373245 102.78125 86.4375 C 103.17644 85.501755 103.84443 84.691597 104.6875 84.125 C 103.64481 84.631093 102.76116 85.448854 102.15625 86.4375 C 101.55134 87.426146 101.22597 88.591225 101.25 89.75 C 101.27403 90.908775 101.63587 92.037283 102.28125 93 C 102.92663 93.962716 103.87472 94.756322 104.9375 95.21875 C 106.0978 95.72361 107.41237 95.857264 108.65625 95.625 C 109.90013 95.392736 111.05319 94.77698 112 93.9375 C 112.94681 93.098019 113.68061 92.028525 114.125 90.84375 C 114.56939 89.658976 114.71792 88.386958 114.625 87.125 C 114.43915 84.601082 113.24052 82.213326 111.46875 80.40625 C 109.69698 78.599173 107.37878 77.33479 104.96875 76.5625 C 103.07905 75.956949 101.10818 75.624884 99.125 75.625 z M 80.03125 80.21875 C 77.434649 80.229606 74.862869 80.789897 72.5 81.875 C 69.799579 83.115118 67.408254 85.046112 65.6875 87.46875 C 62.633973 91.76779 61.837081 97.5705 63.625 102.53125 C 65.194701 106.88654 68.737291 110.45166 73.03125 112.15625 L 73.1875 110.34375 C 71.746897 109.76115 70.401176 108.95164 69.21875 107.9375 C 67.424352 106.39849 66.014414 104.42146 65.15625 102.21875 C 63.439922 97.81331 64.032842 92.589618 66.65625 88.65625 C 68.226032 86.30262 70.470603 84.390361 73.03125 83.1875 C 75.271815 82.134996 77.742506 81.628406 80.21875 81.625 C 80.572499 81.624513 80.928236 81.635265 81.28125 81.65625 C 82.739482 81.742935 84.174518 82.034114 85.5625 82.46875 C 85.571957 82.471711 85.584297 82.465774 85.59375 82.46875 L 85.59375 82.4375 L 87.28125 83.09375 L 87.3125 83.09375 C 87.316508 83.09545 87.308493 83.123297 87.3125 83.125 C 90.585687 84.515907 93.532014 86.784096 95.6875 89.625 C 97.734526 92.322957 99.090569 95.461207 99.90625 98.75 L 100.90625 98.75 C 100.07765 95.059475 98.593234 91.533831 96.3125 88.53125 C 94.186526 85.73241 91.347015 83.490771 88.15625 82.03125 C 88.166064 82.020243 88.177656 82.01098 88.1875 82 L 86.46875 81.34375 L 86.40625 81.3125 C 84.720463 80.723477 82.944603 80.350481 81.15625 80.25 C 80.78539 80.229163 80.402193 80.217199 80.03125 80.21875 z M 85.125 83.1875 C 84.920299 83.540471 84.742592 83.912509 84.5625 84.28125 C 83.725111 85.99582 83.232377 87.879042 83.15625 89.78125 L 83.15625 89.8125 L 84.5 90.21875 C 84.543739 89.659007 84.597864 89.104118 84.71875 88.5625 C 85.09582 86.87307 85.830165 85.2859 86.78125 83.84375 L 85.125 83.1875 z M 80.65625 90.375 C 79.815237 90.400132 78.967789 90.529828 78.15625 90.75 C 75.992145 91.337126 74.017092 92.642324 72.59375 94.375 C 74.214281 92.662315 76.464547 91.559453 78.8125 91.34375 C 80.292772 91.20776 81.797286 91.443382 83.1875 91.96875 C 83.206257 91.975838 83.231287 91.961549 83.25 91.96875 C 83.251305 91.978911 83.248671 91.989841 83.25 92 C 83.73284 92.190864 84.171205 92.371636 84.5 92.5625 C 84.507553 92.566885 84.523808 92.558115 84.53125 92.5625 C 84.543914 92.569608 84.549898 92.58659 84.5625 92.59375 C 84.878539 92.773323 85.173879 92.972589 85.46875 93.1875 C 87.355531 94.562647 88.724465 96.631687 89.25 98.90625 L 91.625 99.125 C 91.336959 97.697291 90.791077 96.328613 89.96875 95.125 C 88.703795 93.273526 86.853879 91.838233 84.75 91.0625 C 84.664607 91.031014 84.585431 90.993874 84.5 90.96875 L 84.4375 90.96875 C 84.437792 90.958498 84.437188 90.947757 84.4375 90.9375 L 83.15625 90.59375 C 82.33184 90.429301 81.497263 90.349868 80.65625 90.375 z M 83.4375 93.0625 C 83.792429 94.654537 84.475029 96.174779 85.5 97.4375 C 86.529959 98.706375 87.912119 99.67922 89.46875 100.15625 L 91.84375 100.5625 L 91.90625 100.71875 C 92.037264 100.77066 92.171583 100.81679 92.28125 100.90625 C 92.483766 101.07144 92.614224 101.29172 92.71875 101.53125 C 92.823275 101.77078 92.881343 102.05234 92.90625 102.3125 C 92.95607 102.83281 92.906 103.35323 92.875 103.875 C 92.83811 104.49593 92.85373 105.1024 92.9375 105.71875 L 94.28125 99.53125 C 93.769276 99.58455 93.26361 99.62215 92.75 99.65625 C 92.423793 99.677923 92.076985 99.684519 91.75 99.6875 C 91.747037 99.667441 91.753075 99.645041 91.75 99.625 C 90.951758 99.560071 90.141992 99.502753 89.34375 99.28125 C 89.334891 99.277981 89.321347 99.284546 89.3125 99.28125 L 89.28125 99.25 C 88.643861 99.009132 88.03634 98.702655 87.5 98.28125 C 86.570553 97.55098 85.823148 96.566025 85.3125 95.5 C 84.997861 94.843164 84.798187 94.145228 84.65625 93.4375 L 83.4375 93.0625 z M 89.5 100.75 C 89.557553 102.50175 89.156972 104.27356 88.3125 105.8125 C 87.456775 107.37194 86.167745 108.6826 84.65625 109.625 C 84.65118 109.61946 84.630086 109.63052 84.625 109.625 L 84 110 C 83.994951 109.99452 83.973794 110.00546 83.96875 110 C 83.582975 110.20492 83.187675 110.40463 82.78125 110.5625 C 80.848936 111.3131 78.74444 111.53829 76.6875 111.28125 L 76.625 113.125 C 79.563957 113.52393 82.628965 113.07615 85.25 111.71875 L 85.25 111.6875 L 85.90625 111.375 L 85.9375 111.34375 C 85.94542 111.33931 85.960754 111.34811 85.96875 111.34375 C 86.042489 111.30354 86.116965 111.26301 86.1875 111.21875 C 87.847354 110.17716 89.247861 108.74647 90.25 107.0625 C 91.252138 105.37853 91.838156 103.428 91.875 101.46875 C 91.877541 101.33361 91.850887 101.1984 91.84375 101.0625 L 89.5 100.75 z M 100.40625 101.15625 C 100.55144 102.04611 100.67976 102.94648 100.75 103.84375 C 100.78675 104.31323 100.7947 104.77999 100.8125 105.25 L 101.71875 106.03125 C 101.70785 105.22033 101.68615 104.40327 101.625 103.59375 C 101.56785 102.8372 101.48199 102.06599 101.375 101.3125 L 100.40625 101.15625 z M 78.8125 107 C 78.614425 107.01002 78.415556 107.03182 78.21875 107.0625 C 77.431527 107.18521 76.688325 107.45566 76.03125 107.90625 C 75.374175 108.35684 74.824836 108.97477 74.46875 109.6875 C 74.310516 110.00422 74.174012 110.34453 74.09375 110.6875 C 74.084446 110.68447 74.071797 110.69054 74.0625 110.6875 C 73.939283 111.74018 73.954161 112.0095 73.96875 112.5 C 73.990852 112.50718 74.009114 112.52417 74.03125 112.53125 C 74.082601 112.92481 74.14909 113.31468 74.28125 113.6875 C 74.740553 114.98317 75.640243 116.11637 76.71875 116.96875 C 78.573649 118.43473 80.931823 119.14179 83.28125 119.40625 C 84.505929 119.5441 85.73673 119.5298 86.96875 119.5 L 86.6875 118.59375 C 86.093925 118.60718 85.500789 118.63584 84.90625 118.625 C 83.091472 118.5919 81.258498 118.37952 79.59375 117.65625 C 78.761376 117.29461 77.970607 116.81242 77.3125 116.1875 C 76.654393 115.56258 76.131356 114.78718 75.8125 113.9375 C 75.694762 113.62376 75.616719 113.2995 75.5625 112.96875 L 75.5625 112.9375 L 75.53125 112.9375 C 75.457148 112.30089 75.51654 111.67992 75.59375 111.09375 L 75.625 111.09375 L 75.625 111.0625 C 75.829032 110.25511 76.248284 109.48446 76.875 108.9375 C 77.549977 108.34842 78.448199 108.01239 79.34375 107.9375 C 79.642267 107.91254 79.921854 107.93663 80.21875 107.96875 C 81.406332 108.09722 82.537962 108.65157 83.4375 109.4375 L 84 109 C 83.617381 108.66737 83.212779 108.36345 82.78125 108.09375 C 81.598895 107.3548 80.199022 106.92985 78.8125 107 z M 92.96875 110.15625 C 93.0572 111.11809 93.08981 112.09838 93.03125 113.0625 C 92.96373 114.17411 92.789336 115.26204 92.75 116.375 C 92.73895 116.68775 92.74639 117.00514 92.6875 117.3125 C 92.62861 117.61986 92.500996 117.93343 92.28125 118.15625 C 92.044003 118.39682 91.709103 118.51216 91.375 118.5625 C 91.040896 118.6128 90.712643 118.60615 90.375 118.59375 C 90.127764 118.5846 89.876141 118.59984 89.625 118.59375 L 89.84375 119.4375 C 90.021212 119.43068 90.198731 119.41417 90.375 119.40625 C 91.923538 119.33695 93.481372 119.27546 95.03125 119.25 L 94.71875 110.46875 L 92.96875 110.15625 z M 101.5 111.4375 L 100.5625 111.5625 C 100.31538 113.71154 99.920666 115.82826 99.4375 117.9375 L 100.46875 117.96875 C 100.88735 115.80078 101.28154 113.63402 101.5 111.4375 z M 86.4375 112.28125 L 85.71875 112.65625 C 86.155071 113.62204 86.491649 114.63758 86.78125 115.65625 C 87.056604 116.6248 87.296272 117.60114 87.5 118.59375 L 87.65625 119.5 L 87.65625 119.53125 C 88.036584 121.67513 88.197131 123.85357 88.0625 126 L 89.40625 126.625 C 89.506549 124.28066 89.31601 121.91551 88.84375 119.59375 L 88.8125 119.46875 L 88.625 118.5625 C 88.414889 117.6705 88.179737 116.77622 87.90625 115.90625 C 87.513139 114.65575 87.04406 113.43905 86.4375 112.28125 z M 98.875 120.1875 C 97.922734 123.85313 96.759731 127.45627 95.5 131.03125 L 95.5 131.0625 C 95.495619 131.07493 95.473133 131.08132 95.46875 131.09375 L 94.5 133.8125 L 94.5 133.84375 C 94.19597 134.69006 93.898196 135.52911 93.59375 136.375 C 92.42059 139.63459 91.243519 142.97525 91.125 146.4375 C 91.06574 148.16862 91.284841 149.934 91.875 151.5625 C 92.465159 153.191 93.445774 154.67816 94.78125 155.78125 C 96.295634 157.03212 98.255178 157.73659 100.21875 157.6875 C 102.18232 157.6384 104.12015 156.83537 105.5 155.4375 C 106.87985 154.03964 107.67129 152.05641 107.59375 150.09375 C 107.51621 148.1311 106.55001 146.20644 105 145 C 103.85541 144.10911 102.41919 143.625 100.96875 143.625 C 99.518307 143.625 98.082094 144.10911 96.9375 145 C 98.099467 144.46498 99.446696 144.39609 100.65625 144.8125 C 101.8658 145.2289 102.91362 146.14434 103.5 147.28125 C 104.017 148.28364 104.1754 149.45373 103.96875 150.5625 C 103.7621 151.67128 103.19967 152.69933 102.375 153.46875 C 101.55033 154.23816 100.46064 154.74929 99.34375 154.90625 C 98.226858 155.06321 97.079622 154.86237 96.0625 154.375 C 94.629273 153.68822 93.526999 152.41813 92.875 150.96875 C 92.223 149.51937 91.993917 147.89864 92.09375 146.3125 C 92.293418 143.14022 93.67495 140.19332 94.875 137.25 C 95.201271 136.44977 95.5093 135.65228 95.8125 134.84375 L 95.8125 134.75 L 96.84375 131.875 L 96.875 131.84375 C 98.160517 128.02744 99.187068 124.12596 100.03125 120.1875 L 98.875 120.1875 z M 76.9375 123.71875 C 76.524737 123.71386 76.100191 123.72599 75.6875 123.75 C 72.38597 123.94208 69.103415 125.17655 66.75 127.5 C 65.573292 128.66173 64.625241 130.05919 64.09375 131.625 C 63.562258 133.19082 63.441787 134.91291 63.78125 136.53125 C 64.083888 137.97403 64.748658 139.33219 65.6875 140.46875 C 66.626342 141.60531 67.824655 142.52376 69.15625 143.15625 C 71.819441 144.42124 74.987502 144.53141 77.8125 143.6875 C 80.441531 142.90214 82.785985 141.31757 84.625 139.28125 C 86.464015 137.24492 87.782227 134.75555 88.5625 132.125 C 88.697753 131.66902 88.835961 131.21548 88.9375 130.75 L 87.4375 129.96875 C 87.418021 130.04212 87.396031 130.11434 87.375 130.1875 C 86.696095 132.54913 85.52087 134.7978 83.84375 136.59375 C 82.16663 138.3897 79.991908 139.71426 77.59375 140.25 C 75.490588 140.71984 73.210725 140.55352 71.28125 139.59375 C 69.351776 138.63398 67.803546 136.84831 67.3125 134.75 C 67.013049 133.4704 67.10511 132.11816 67.53125 130.875 C 67.95739 129.63184 68.697727 128.49279 69.65625 127.59375 C 71.573298 125.79567 74.27792 124.96315 76.90625 124.96875 C 79.534581 124.97475 82.120515 125.7881 84.46875 126.96875 C 85.588529 127.53176 86.642064 128.1837 87.6875 128.875 C 87.685418 128.88491 87.689585 128.89634 87.6875 128.90625 L 87.71875 128.90625 L 89.09375 129.84375 L 89.125 129.84375 C 89.12995 129.84725 89.12005 129.8715 89.125 129.875 C 89.772471 130.33302 90.425929 130.77818 91.0625 131.25 C 91.917597 131.88379 92.771615 132.51926 93.625 133.15625 L 94.6875 130.59375 C 94.492315 130.47421 94.288041 130.36927 94.09375 130.25 C 92.554057 129.30478 91.02687 128.35764 89.4375 127.5 C 89.416914 127.48889 89.395607 127.47983 89.375 127.46875 L 88.03125 126.78125 C 88.030199 126.79165 88.032317 126.8021 88.03125 126.8125 C 87.155236 126.37511 86.283307 125.93065 85.375 125.5625 C 82.693185 124.47553 79.826838 123.75297 76.9375 123.71875 z M 97.5 132.3125 L 96.4375 135.1875 C 99.38663 137.33954 102.3622 139.43436 105.59375 141.125 C 110.79096 143.844 116.66492 145.59649 122.5 145 C 128.20534 144.41677 133.63614 141.49017 137.28125 137.0625 C 132.68001 140.13462 127.12382 141.72843 121.59375 141.5625 C 116.57921 141.41204 111.69382 139.85855 107.15625 137.71875 C 103.81653 136.14381 100.64925 134.2449 97.5 132.3125 z "
         transform="translate(-10.800001,831.05998)"
         id="path3826" />
      <path
         transform="matrix(0.70710678,0.70710678,-0.70710678,0.70710678,0,0)"
         style="fill:#7b2c2c;fill-rule:evenodd;stroke:none"
         d="m 726.42975,598.8125 5.38181,0 0,5.38181 -5.38181,0 z"
         id="rect3779" />
    </g>
    <g
       style="font-size:40px;font-style:normal;font-variant:normal;font-weight:normal;font-stretch:normal;line-height:125%;letter-spacing:0px;word-spacing:0px;fill:#000000;fill-opacity:1;stroke:none;font-family:Adobe Garamond Pro;-inkscape-font-specification:Adobe Garamond Pro"
       id="name">
      <path
         d="m 92.825031,943.0863 c 0,3.15 -0.06,3.51 -1.8,3.75 l -0.69,0.09 c -0.18,0.18 -0.12,0.66 0.06,0.75 1.409999,-0.06 2.490001,-0.09 3.75,-0.09 1.049999,0 2.970002,0.24 4.89,0.24 2.309999,0 4.769999,-0.39 6.719999,-1.44 3.42,-1.85999 5.25,-5.13 5.25,-8.94 0,-3.95999 -2.04,-7.38 -6.09,-8.85 -1.95,-0.72 -4.08,-0.9 -6.599999,-0.9 -2.549997,0 -4.980002,0.09 -7.53,0.24 -0.3,0.12 -0.27,0.6 -0.03,0.75 l 0.66,0.09 c 1.259999,0.18 1.41,0.81001 1.41,2.91 l 0,11.4 m 2.46,-11.76 c 0,-1.34999 0.06,-2.1 0.3,-2.28 0.24,-0.18 1.200002,-0.42 2.97,-0.42 7.859989,0 9.449999,5.58001 9.449999,8.88 0,5.58 -2.61,9.39 -8.429999,9.39 -1.889998,0 -3.030001,-0.3 -3.69,-1.23 -0.509999,-0.72 -0.6,-1.68 -0.6,-3.27 l 0,-11.07"
         style="font-size:30px;text-align:center;text-anchor:middle;fill:#000000"
         id="path3009" />
      <path
         d="m 115.72816,942.6663 c -1.92,0.69 -2.49,1.38 -2.49,2.55 0,0.84 0.36,1.59 0.93,2.1 0.51,0.45 1.23,0.69 2.1,0.69 0.84,0 1.5,-0.39 2.16,-0.75 0.6,-0.33 0.96,-0.6 1.17,-0.6 0.18,0 0.36,0.24 0.48,0.42 0.51,0.66 1.23,0.93 1.95,0.93 1.46999,0 2.52,-1.17 2.52,-1.32 0,-0.21 -0.09,-0.39 -0.21,-0.39 -0.09,0 -0.24,0.12 -0.39,0.21 -0.18,0.09 -0.45,0.18 -0.75,0.18 -1.17,0 -1.44,-1.23 -1.38,-2.61 l 0.18,-5.22 c 0.09,-2.24999 -0.96001,-3.51 -3.12,-3.51 -2.19,0 -5.58,2.13001 -5.58,3.69 0,0.27 0.15,0.42 0.42,0.42 0.45,0 1.26,-0.21 1.71,-0.57 0.24,-0.18 0.27,-0.54 0.3,-1.02 0.06,-0.93 1.08,-1.35 1.92,-1.35 1.85999,0 2.22,1.5 2.19,2.61 l -0.03,1.38 c 0,0.45 -0.06,0.72 -0.51,0.87 l -3.57,1.29 m -0.18,2.19 c 0,-1.17 0.87,-1.62 2.64,-2.22 0.54,-0.18 1.05,-0.3 1.23,-0.3 0.18,0 0.3,0.06 0.3,0.39 l -0.06,1.77 c -0.03,0.63 -0.03,1.05 -0.39,1.41 -0.3,0.3 -1.23,0.75 -1.83,0.75 -1.53,0 -1.89,-1.29 -1.89,-1.8"
         style="font-size:30px;text-align:center;text-anchor:middle;fill:#000000"
         id="path3011" />
      <path
         d="m 127.25706,944.2263 c 0,2.16 -0.03,2.46 -1.14,2.61 l -0.63,0.09 c -0.21,0.15 -0.15,0.66 0.06,0.75 0.84,-0.06 1.74,-0.09 2.82,-0.09 1.05,0 1.92,0.03 2.73,0.09 0.21,-0.09 0.27,-0.6 0.06,-0.75 l -0.54,-0.09 c -1.08,-0.18 -1.14,-0.45 -1.14,-2.61 l 0,-4.59 c 0,-0.87 0.06,-1.29 0.45,-1.8 0.42,-0.57 1.41,-1.05 2.55,-1.05 2.04,0 2.82,1.26001 2.82,2.97 l 0,4.47 c 0,2.16 -0.03,2.43 -1.14,2.61 l -0.57,0.09 c -0.21,0.15 -0.15,0.66 0.06,0.75 0.81,-0.06 1.71,-0.09 2.79,-0.09 1.05,0 1.92,0.03 2.82,0.09 0.21,-0.09 0.27,-0.6 0.06,-0.75 l -0.66,-0.09 c -1.08,-0.15 -1.14,-0.45 -1.14,-2.61 l 0,-5.16 c 0,-2.00999 -1.02,-3.72 -3.51,-3.72 -1.53,0 -2.94,0.75 -4.2,1.53 -0.21,0 -0.33,-0.15 -0.33,-0.33 0,-0.27 0,-0.72 0.06,-1.41 -0.06,-0.15 -0.21,-0.21 -0.33,-0.21 -0.6,0.45 -2.31,1.23 -3,1.47 -0.15,0.09 -0.15,0.42 -0.03,0.54 l 0.27,0.18 c 0.81,0.54 0.81,0.69 0.81,1.86 l 0,5.25"
         style="font-size:30px;text-align:center;text-anchor:middle;fill:#000000"
         id="path3013" />
      <path
         d="m 143.01878,944.2263 c 0,2.16 -0.03,2.46 -1.14,2.61 l -0.63,0.09 c -0.21,0.15 -0.15,0.66 0.06,0.75 0.84,-0.06 1.74,-0.09 2.82,-0.09 1.05,0 1.92,0.03 2.82,0.09 0.21,-0.09 0.27,-0.6 0.06,-0.75 l -0.63,-0.09 c -1.08,-0.15 -1.14,-0.45 -1.14,-2.61 l 0,-5.4 c 0,-1.23 0.06,-2.67 0.12,-3.72 -0.03,-0.12 -0.15,-0.18 -0.3,-0.18 -0.69,0.45 -2.4,1.23 -3.09,1.47 -0.15,0.09 -0.15,0.42 -0.03,0.54 l 0.27,0.18 c 0.81,0.54 0.81,0.69 0.81,1.86 l 0,5.25 m 0.99,-15.36 c -0.9,0 -1.62,0.63 -1.62,1.62 0,0.81 0.6,1.5 1.53,1.5 0.84,0 1.59,-0.48 1.59,-1.56 0,-0.84 -0.6,-1.56 -1.5,-1.56"
         style="font-size:30px;text-align:center;text-anchor:middle;fill:#000000"
         id="path3015" />
      <path
         d="m 157.26316,939.9063 c 1.25999,0 1.68,-0.03 1.77,-0.21 0.06,-0.12 0.12,-0.36 0.12,-0.78 0,-1.79999 -1.68001,-3.57 -4.26,-3.57 -3.6,0 -6.03,3.09001 -6.03,6.78 0,1.32 0.36,2.73 1.26,3.9 0.87,1.14 2.4,1.98 4.35,1.98 1.55999,0 3.72,-0.75 4.71,-2.79 -0.03,-0.27 -0.24,-0.45 -0.54,-0.36 -0.93,1.17 -1.77,1.47 -2.76,1.47 -3.21,0 -4.98,-2.58 -4.98,-5.61 0,-0.75 0.03,-0.81 0.81,-0.81 l 5.55,0 m -5.82,-0.9 c -0.21,0 -0.21,-0.09 -0.21,-0.15 0.03,-0.99 1.56,-2.61 3.33,-2.61 1.73999,0 2.31,1.05 2.31,1.89 0,0.39 -0.09,0.51 -0.18,0.57 -0.24,0.18 -0.90001,0.3 -3.12,0.3 l -2.13,0"
         style="font-size:30px;text-align:center;text-anchor:middle;fill:#000000"
         id="path3017" />
      <path
         d="m 164.56769,930.0363 c 0,-1.31999 0.06,-2.82 0.09,-3.72 -0.06,-0.12 -0.18,-0.18 -0.3,-0.18 -1.08,0.57 -2.49,1.02 -3.24,1.26 -0.15,0.09 -0.15,0.51 0,0.6 l 0.3,0.18 c 0.9,0.54 0.93,0.72001 0.93,2.49 l 0,13.56 c 0,2.16 -0.03,2.46 -1.14,2.61 l -0.69,0.09 c -0.21,0.15 -0.15,0.66 0.06,0.75 0.9,-0.06 1.8,-0.09 2.88,-0.09 1.05,0 1.92,0.03 2.91,0.09 0.21,-0.09 0.27,-0.6 0.06,-0.75 l -0.72,-0.09 c -1.08,-0.15 -1.14,-0.45 -1.14,-2.61 l 0,-14.19"
         style="font-size:30px;text-align:center;text-anchor:middle;fill:#000000"
         id="path3019" />
      <path
         d="m 178.4305,943.0863 c 0,3.15 -0.06,3.51 -1.8,3.75 l -0.69,0.09 c -0.18,0.18 -0.12,0.66 0.06,0.75 1.41,-0.06 2.49,-0.09 3.75,-0.09 1.05,0 2.97,0.24 4.89,0.24 2.31,0 4.77,-0.39 6.72,-1.44 3.42,-1.85999 5.25,-5.13 5.25,-8.94 0,-3.95999 -2.04,-7.38 -6.09,-8.85 -1.95,-0.72 -4.08,-0.9 -6.6,-0.9 -2.55,0 -4.98,0.09 -7.53,0.24 -0.3,0.12 -0.27,0.6 -0.03,0.75 l 0.66,0.09 c 1.26,0.18 1.41,0.81001 1.41,2.91 l 0,11.4 m 2.46,-11.76 c 0,-1.34999 0.06,-2.1 0.3,-2.28 0.24,-0.18 1.2,-0.42 2.97,-0.42 7.85999,0 9.45,5.58001 9.45,8.88 0,5.58 -2.61001,9.39 -8.43,9.39 -1.89,0 -3.03,-0.3 -3.69,-1.23 -0.51,-0.72 -0.6,-1.68 -0.6,-3.27 l 0,-11.07"
         style="font-size:30px;text-align:center;text-anchor:middle;fill:#000000"
         id="path3021" />
      <path
         d="m 201.33362,942.6663 c -1.91999,0.69 -2.49,1.38 -2.49,2.55 0,0.84 0.36001,1.59 0.93,2.1 0.51,0.45 1.23001,0.69 2.1,0.69 0.84,0 1.50001,-0.39 2.16,-0.75 0.6,-0.33 0.96001,-0.6 1.17,-0.6 0.18,0 0.36,0.24 0.48,0.42 0.51,0.66 1.23001,0.93 1.95,0.93 1.47,0 2.52,-1.17 2.52,-1.32 0,-0.21 -0.09,-0.39 -0.21,-0.39 -0.09,0 -0.24,0.12 -0.39,0.21 -0.17999,0.09 -0.45,0.18 -0.75,0.18 -1.16999,0 -1.44,-1.23 -1.38,-2.61 l 0.18,-5.22 c 0.09,-2.24999 -0.96,-3.51 -3.12,-3.51 -2.18999,0 -5.58,2.13001 -5.58,3.69 0,0.27 0.15001,0.42 0.42,0.42 0.45,0 1.26001,-0.21 1.71,-0.57 0.24,-0.18 0.27,-0.54 0.3,-1.02 0.06,-0.93 1.08001,-1.35 1.92,-1.35 1.86,0 2.22,1.5 2.19,2.61 l -0.03,1.38 c 0,0.45 -0.06,0.72 -0.51,0.87 l -3.57,1.29 m -0.18,2.19 c 0,-1.17 0.87001,-1.62 2.64,-2.22 0.54,-0.18 1.05001,-0.3 1.23,-0.3 0.18,0 0.3,0.06 0.3,0.39 l -0.06,1.77 c -0.03,0.63 -0.03,1.05 -0.39,1.41 -0.29999,0.3 -1.23,0.75 -1.83,0.75 -1.52999,0 -1.89,-1.29 -1.89,-1.8"
         style="font-size:30px;text-align:center;text-anchor:middle;fill:#000000"
         id="path3023" />
      <path
         d="m 212.86253,944.2263 c 0,2.16 -0.03,2.43 -1.14,2.61 l -0.57,0.09 c -0.21,0.15 -0.15,0.66 0.06,0.75 0.78,-0.06 1.68,-0.09 2.76,-0.09 1.05,0 1.92,0.03 3.33,0.09 0.21,-0.09 0.27,-0.6 0.06,-0.75 l -1.08,-0.09 c -1.14,-0.09 -1.2,-0.45 -1.2,-2.61 l 0,-4.08 c 0,-1.02 0.09,-1.89 0.39,-2.31 0.24,-0.33 0.6,-0.6 1.08,-0.6 0.42,0 0.87,0.18 1.32,0.48 0.21,0.12 0.36,0.21 0.66,0.21 0.48,0 1.29,-0.39 1.29,-1.38 0,-0.72 -0.6,-1.2 -1.35,-1.2 -1.11,0 -2.25,0.93 -3.3,1.8 -0.06,-0.03 -0.09,-0.12 -0.09,-0.27 l 0,-1.74 c 0,-0.12 -0.09,-0.18 -0.24,-0.21 -0.75,0.45 -2.34,1.23 -3.03,1.47 -0.15,0.09 -0.15,0.42 -0.03,0.54 l 0.27,0.18 c 0.81,0.54 0.81,0.69 0.81,1.86 l 0,5.25"
         style="font-size:30px;text-align:center;text-anchor:middle;fill:#000000"
         id="path3025" />
      <path
         d="m 223.42347,942.6663 c -1.92,0.69 -2.49,1.38 -2.49,2.55 0,0.84 0.36,1.59 0.93,2.1 0.51,0.45 1.23,0.69 2.1,0.69 0.84,0 1.5,-0.39 2.16,-0.75 0.6,-0.33 0.96,-0.6 1.17,-0.6 0.18,0 0.36,0.24 0.48,0.42 0.51,0.66 1.23,0.93 1.95,0.93 1.47,0 2.52,-1.17 2.52,-1.32 0,-0.21 -0.09,-0.39 -0.21,-0.39 -0.09,0 -0.24,0.12 -0.39,0.21 -0.18,0.09 -0.45,0.18 -0.75,0.18 -1.17,0 -1.44,-1.23 -1.38,-2.61 l 0.18,-5.22 c 0.09,-2.24999 -0.96,-3.51 -3.12,-3.51 -2.19,0 -5.58,2.13001 -5.58,3.69 0,0.27 0.15,0.42 0.42,0.42 0.45,0 1.26,-0.21 1.71,-0.57 0.24,-0.18 0.27,-0.54 0.3,-1.02 0.06,-0.93 1.08,-1.35 1.92,-1.35 1.86,0 2.22,1.5 2.19,2.61 l -0.03,1.38 c 0,0.45 -0.06,0.72 -0.51,0.87 l -3.57,1.29 m -0.18,2.19 c 0,-1.17 0.87,-1.62 2.64,-2.22 0.54,-0.18 1.05,-0.3 1.23,-0.3 0.18,0 0.3,0.06 0.3,0.39 l -0.06,1.77 c -0.03,0.63 -0.03,1.05 -0.39,1.41 -0.3,0.3 -1.23,0.75 -1.83,0.75 -1.53,0 -1.89,-1.29 -1.89,-1.8"
         style="font-size:30px;text-align:center;text-anchor:middle;fill:#000000"
         id="path3027" />
      <path
         d="m 234.26237,944.9763 c 0,1.56 -0.03,2.13 -0.06,2.55 0.06,0.12 0.18,0.18 0.3,0.18 0.06,0 0.09,0 0.12,-0.03 0.15,-0.21 0.39001,-0.45 0.63,-0.45 0.24,0 0.63001,0.18 1.26,0.39 0.6,0.18 1.44001,0.39 2.55,0.39 4.02,0 6.9,-2.79 6.9,-6.78 0,-3.29999 -2.31,-5.88 -5.73,-5.88 -1.46999,0 -2.67,0.54 -3.45,0.99 -0.17999,0 -0.3,-0.12 -0.3,-0.63 l 0,-5.67 c 0,-1.31999 0.06,-2.67 0.12,-3.72 -0.06,-0.12 -0.18,-0.18 -0.3,-0.18 -1.13999,0.6 -2.58,0.99 -3.27,1.26 -0.14999,0.09 -0.14999,0.51 0,0.6 l 0.3,0.18 c 0.9,0.54 0.93,0.72001 0.93,2.49 l 0,14.31 m 2.22,-6.15 c 0,-1.17 0.06,-1.5 0.36,-1.71 0.42,-0.27 1.14001,-0.48 2.04,-0.48 2.97,0 4.56,2.40001 4.56,5.49 0,2.58 -1.11,4.98 -3.93,4.98 -0.95999,0 -1.77,-0.36 -2.28,-0.99 -0.50999,-0.63 -0.75,-1.56 -0.75,-2.61 l 0,-4.68"
         style="font-size:30px;text-align:center;text-anchor:middle;fill:#000000"
         id="path3029" />
      <path
         d="m 254.45237,935.3463 c -3.53999,0 -6.39,2.70001 -6.39,6.48 0,3.75 2.70001,6.18 6.15,6.18 3.75,0 6.33,-2.7 6.33,-6.45 0,-3.68999 -2.73,-6.21 -6.09,-6.21 m 3.51,6.69 c 0,2.31 -0.81,5.07 -3.45,5.07 -2.63999,0 -3.87,-2.94 -3.87,-5.67 0,-3.29999 1.47001,-5.19 3.45,-5.19 2.85,0 3.87,3.24001 3.87,5.79"
         style="font-size:30px;text-align:center;text-anchor:middle;fill:#000000"
         id="path3031" />
      <path
         d="m 267.18222,935.3463 c -2.28,0 -4.08,1.23001 -4.08,3.42 0,1.65 1.23,2.7 2.97,3.69 1.11,0.63 2.31,1.38001 2.31,2.76 0,1.29 -0.93,1.92 -2.01,1.92 -1.71,0 -2.67,-1.44 -3.18,-3.09 -0.15,-0.18 -0.54,-0.15 -0.69,0.03 -0.06,0.99 0.12,2.46 0.36,3.03 0.75,0.6 1.8,0.9 3.21,0.9 2.22,0 4.32,-1.14 4.32,-3.42 0,-2.12999 -1.47,-3.15 -3.06,-4.05 -1.05,-0.6 -2.31,-1.26 -2.31,-2.49 0,-1.08 0.75,-1.83 1.92,-1.83 1.23,0 2.13,0.87001 2.64,2.19 0.15,0.18 0.6,0.12 0.72,-0.09 0,-0.81 -0.21,-1.77 -0.48,-2.43 -0.27,-0.24 -1.38,-0.54 -2.64,-0.54"
         style="font-size:30px;text-align:center;text-anchor:middle;fill:#000000"
         id="path3033" />
    </g>
  </g>
</svg>
